<?xml version="1.0" encoding="utf-8"?><svg xmlns="http://www.w3.org/2000/svg" xmlns:xlink="http://www.w3.org/1999/xlink"><symbol viewBox="0 0 39.29 38.25" id="ic-eat" xmlns="http://www.w3.org/2000/svg"><defs><style>.acls-1{fill:#ed7e00;fill-rule:evenodd}</style></defs><path id="aic-eat" class="acls-1" d="M1206.34 1943.24c-.33.33-.53.8.16 3.64.42 1.7 3.68 11.18 4.79 13.9 2.26 5.54 3.71 5.36 4.54 5.46a1.652 1.652 0 0 0 1.14-.27c.92-.62 1.23-.81 1.59-1.02.13-.07.26-.15.43-.25 1 1.62 2.24 4.14 3.44 6.58a63.705 63.705 0 0 0 4.62 8.45 3.58 3.58 0 0 0 2.39 1.53 3.3 3.3 0 0 0 3.13-1.6 3.231 3.231 0 0 0 .07-3.54c-1.41-2.14-22.07-29.02-25.17-32.71a.771.771 0 0 0-1.13-.17zm24.97 35.63a1.821 1.821 0 0 1-1.68.93 2.2 2.2 0 0 1-1.39-.95 64.776 64.776 0 0 1-4.47-8.21 70.36 70.36 0 0 0-3.94-7.37.743.743 0 0 0-.52-.32.818.818 0 0 0-.5.11c-.5.32-1.72 1.04-2.68 1.69a.125.125 0 0 1-.11.03c-.51.26-.55-.12-1.41-1.28-1.39-1.86-5.31-12.82-6.45-16.42-.44-1.39.03-.62.38-.18 3.73 4.74 21.48 27.95 22.85 30.03a1.8 1.8 0 0 1-.08 1.94zm11.12-28.35a.755.755 0 0 0-1.06-.02c-1.9 1.83-3.68 3.6-5.1 5.03-.37.37-.7.7-1 1.01l-1.41-1.4 5.94-5.69a.722.722 0 0 0 .02-1.04.755.755 0 0 0-1.06-.02l-5.95 5.71-1.33-1.31 5.98-5.73a.731.731 0 0 0 .02-1.04.764.764 0 0 0-1.06-.02l-5.99 5.75-1.29-1.28 6.48-6.21a.73.73 0 0 0 .01-1.04.742.742 0 0 0-1.05-.01l-7.45 7.14c-1.91 1.83-1.76 4.51.31 6.99l-4.23 4.12a.734.734 0 0 0-.02 1.05.849.849 0 0 0 .41.21.727.727 0 0 0 .64-.2l4.25-4.13a5.993 5.993 0 0 0 2.86 1.31c.13.03.26.04.4.06a4.313 4.313 0 0 0 3.4-1.03c.52-.5 1.25-1.23 2.18-2.16 1.42-1.43 3.19-3.2 5.08-5.01a.731.731 0 0 0 .02-1.04zm-10.54 7.77a4.612 4.612 0 0 1-2.83-1.38c-1.53-1.55-2.56-3.77-.99-5.41l6.14 6.08a.9.9 0 0 1-.1.09 2.858 2.858 0 0 1-2.22.62zm-12.05 9.89a.743.743 0 0 0-1.05.06c-3 3.33-8.45 9.23-10.28 10.84a2.332 2.332 0 0 1-3.12-.33c-.81-.84-.69-1.9.33-2.92a92.2 92.2 0 0 1 9.26-7.68.724.724 0 0 0 .14-1.03.744.744 0 0 0-1.04-.14 91.987 91.987 0 0 0-9.42 7.81c-1.93 1.93-1.4 3.89-.36 4.97a4.217 4.217 0 0 0 2.31 1.21 3.474 3.474 0 0 0 2.89-.79c2.12-1.86 8.23-8.55 10.4-10.96a.731.731 0 0 0-.06-1.04z" transform="translate(-1203.34 -1943.03)"/></symbol></svg>